<?xml version="1.0" encoding="UTF-8"?>
<svg version="1.1" xmlns="http://www.w3.org/2000/svg" width="1141" height="282">
<path d="M0 0 C12.21 0 24.42 0 37 0 C39.02994106 6.08982317 40.82824701 11.97812172 42.27734375 18.19604492 C42.48444473 19.06956604 42.69154572 19.94308716 42.90492249 20.84307861 C43.58631799 23.72130973 44.26189891 26.60087253 44.9375 29.48046875 C45.42214844 31.53225984 45.90718269 33.58395984 46.39257812 35.63557434 C47.67423086 41.0569464 48.95106242 46.47944228 50.22674561 51.90222168 C51.48327235 57.24074948 52.74356333 62.57838769 54.00390625 67.91601562 C54.25126022 68.96360109 54.4986142 70.01118656 54.75346375 71.09051704 C55.25299784 73.20612139 55.75254514 75.32172262 56.25210571 77.43732071 C56.99881258 80.60043872 57.74493316 83.76369458 58.4909668 86.92697144 C63.61131458 108.62977372 68.79956908 130.31626789 74 152 C75.65 152 77.3 152 79 152 C79.21507407 150.90640309 79.21507407 150.90640309 79.43449306 149.79071331 C82.92088529 132.06400968 86.40944499 114.33773388 89.90042782 96.61193371 C91.5885765 88.03992015 93.27598697 79.46776249 94.96166992 70.89526367 C96.43063903 63.42486752 97.90098274 55.95474348 99.37298876 48.48494512 C100.15259989 44.52849883 100.93151453 40.57191825 101.7087841 36.61501122 C102.44004326 32.89244777 103.17313655 29.17025029 103.9076519 25.44832802 C104.17721975 24.08066297 104.44611121 22.7128644 104.71428299 21.34492493 C105.0799612 19.4801377 105.44828797 17.61587043 105.8167572 15.75163269 C106.02231704 14.70724124 106.22787687 13.66284979 106.43966579 12.58681011 C107 10 107 10 108 7 C121.2 7 134.4 7 148 7 C151.58199553 22.85664442 155.16372727 38.71334836 158.7449913 54.570158 C160.40827623 61.93466815 162.07167469 69.29915261 163.73535156 76.66357422 C165.18737722 83.09110328 166.63917852 89.51868297 168.09072328 95.94632065 C168.85752118 99.34177122 169.62442266 102.73719831 170.39159393 106.13256454 C171.7817794 112.28561577 173.17067331 118.43895023 174.55554199 124.59320068 C175.46049669 128.61437892 176.37257391 132.63378561 177.29309082 136.65142822 C177.66450992 138.28600154 178.03589176 139.92058332 178.40722656 141.55517578 C178.57311153 142.2697891 178.73899651 142.98440243 178.90990829 143.7206707 C179.63806226 146.9447562 180 149.66511488 180 153 C181.98 152.67 183.96 152.34 186 152 C186.12846628 151.38067187 186.25693256 150.76134375 186.38929176 150.1232481 C189.54369834 134.91671143 192.70024843 119.71062144 195.8590641 104.50500011 C197.38671448 97.15108637 198.91368998 89.79703381 200.43896484 82.44262695 C201.77141789 76.01795689 203.10525103 69.59357502 204.4406122 63.16950876 C205.14487353 59.78127073 205.84853182 56.3929105 206.55052567 53.00420189 C210.21972296 35.30020635 214.04271525 17.64181399 218 0 C229.88 0 241.76 0 254 0 C251.75001453 13.49991284 251.75001453 13.49991284 250.68113708 18.18511963 C250.43896957 19.25447754 250.19680206 20.32383545 249.94729614 21.42559814 C249.68810394 22.55391052 249.42891174 23.6822229 249.16186523 24.84472656 C248.8834227 26.06969849 248.60498016 27.29467041 248.31809998 28.5567627 C247.56038669 31.88991767 246.79844225 35.22209222 246.03572345 38.5541048 C245.22589984 42.09551778 244.42019055 45.63786673 243.61402893 49.18011475 C242.07987946 55.91838881 240.54229278 62.6558734 239.00336081 69.39305663 C237.11872639 77.64424528 235.23790558 85.89630205 233.35742188 94.1484375 C232.85468713 96.35452258 232.35195044 98.56060722 231.849213 100.76669168 C231.51695626 102.22469493 231.18470698 103.68269987 230.85246527 105.14070654 C229.86939911 109.4546332 228.88591448 113.7684642 227.90210545 118.08222151 C222.89324362 140.04558842 217.9289477 162.01852718 213 184 C193.86 184 174.72 184 155 184 C148.99038646 159.46770029 143.25365367 134.88452073 137.64300537 110.25842285 C136.55139636 105.46943516 135.45720964 100.68103644 134.36328125 95.89257812 C132.23975591 86.59560596 130.1189393 77.2980184 128 68 C124.58450534 81.06139972 121.7694331 94.22334598 119.015625 107.4375 C118.5507867 109.65671346 118.08567362 111.87586938 117.62030029 114.0949707 C116.40765025 119.88102324 115.19868638 125.66783973 113.99053955 131.45483398 C112.53404881 138.42745477 111.07289131 145.39909896 109.61253357 152.37091064 C107.40481728 162.91320438 105.20296089 173.4567065 103 184 C84.19 184 65.38 184 46 184 C43.09454864 173.5403751 40.20055281 163.11219829 37.56463623 152.5864563 C36.73287656 149.27041074 35.89937318 145.95482143 35.06329346 142.63986206 C34.14200893 138.98575423 33.2218769 135.33135934 32.30279541 131.67669678 C29.86781837 121.99426825 27.42741035 112.3132107 24.984375 102.6328125 C24.73660938 101.65083012 24.48884377 100.66884773 24.2335701 99.65710831 C20.6409971 85.42435924 17.00374172 71.20370533 13.328125 56.9921875 C12.87973377 55.25670312 12.43137924 53.52120926 11.98306274 51.78570557 C10.07733671 44.41105194 8.16842348 37.03728204 6.24612427 29.66692924 C5.46870413 26.68151622 4.69606133 23.69488143 3.92461395 20.70792007 C3.56831701 19.33302227 3.20986253 17.95868146 2.84906769 16.58495712 C2.35888887 14.71806601 1.87674676 12.84907024 1.39501953 10.97998047 C1.12384308 9.9388913 0.85266663 8.89780212 0.57327271 7.82516479 C0 5 0 5 0 0 Z " fill="#2DD4A7" transform="translate(400,27)"/>
<path d="M0 0 C27.00008465 -0.50519909 50.32131244 6.50470765 70.2578125 25.3671875 C82.86172424 38.32242779 88.43348077 54.52253369 90.6328125 72.1171875 C78.4228125 72.1171875 66.2128125 72.1171875 53.6328125 72.1171875 C51.9828125 67.4971875 50.3328125 62.8771875 48.6328125 58.1171875 C41.04213843 46.58520189 31.15597719 39.91172086 17.80859375 36.3671875 C2.05339391 33.13074131 -13.65284678 35.54572455 -27.3671875 44.1171875 C-40.5392833 53.50230576 -46.96711631 68.06356588 -49.6796875 83.6796875 C-52.16058653 103.45531532 -49.35267193 123.63770504 -37.15234375 139.87890625 C-36.56324219 140.61753906 -35.97414062 141.35617188 -35.3671875 142.1171875 C-34.89152344 142.74238281 -34.41585937 143.36757812 -33.92578125 144.01171875 C-30.15793492 148.36982821 -25.55562362 150.84741106 -20.4921875 153.4296875 C-19.50230835 153.93653076 -19.50230835 153.93653076 -18.49243164 154.45361328 C-3.77814034 161.5754673 16.04565907 161.7058773 31.36474609 156.38842773 C39.84906912 153.09948498 46.23678878 148.51321122 52.6328125 142.1171875 C52.9628125 135.8471875 53.2928125 129.5771875 53.6328125 123.1171875 C36.4728125 123.1171875 19.3128125 123.1171875 1.6328125 123.1171875 C1.6328125 113.8771875 1.6328125 104.6371875 1.6328125 95.1171875 C34.9628125 95.1171875 68.2928125 95.1171875 102.6328125 95.1171875 C102.6328125 104.3571875 102.6328125 113.5971875 102.6328125 123.1171875 C97.6828125 123.1171875 92.7328125 123.1171875 87.6328125 123.1171875 C87.71402344 125.39496094 87.79523438 127.67273438 87.87890625 130.01953125 C87.93367468 132.25359288 87.97607507 134.48757655 88.01733398 136.72192383 C88.05229493 138.26133309 88.09988412 139.80051405 88.16088867 141.33911133 C88.71754438 155.75134874 88.71754438 155.75134874 84.39453125 161.3671875 C83.17349448 162.64931467 81.9223912 163.90402318 80.6328125 165.1171875 C79.83617187 166.03628906 79.03953125 166.95539063 78.21875 167.90234375 C60.31410055 186.34476536 35.37514881 193.8025815 10.21923828 194.3515625 C-16.14310876 194.5432451 -41.46177796 186.53796127 -61.046875 168.48828125 C-80.98657505 148.11219045 -88.78928459 121.46769115 -88.59960938 93.45898438 C-88.15375304 70.18528369 -80.90821772 47.6910107 -65.3671875 30.1171875 C-64.90054688 29.50875 -64.43390625 28.9003125 -63.953125 28.2734375 C-51.18398542 11.8453047 -30.18877205 4.15095914 -10.46484375 0.59375 C-6.9778347 0.16440113 -3.50934408 0.12213494 0 0 Z " fill="#D7DEE7" transform="translate(115.3671875,20.8828125)"/>
<path d="M0 0 C1.05058594 -0.01546875 2.10117187 -0.0309375 3.18359375 -0.046875 C15.2909824 0.01298848 24.82095437 3.90307378 33.40625 12.3828125 C37.44036103 16.74170366 40.08281699 21.08551006 42.5 26.5 C44.5528691 23.83487169 46.36370764 21.11338758 48.125 18.25 C54.65080282 8.49344259 63.07807101 2.96588075 74.5 0.5 C90.09923543 -0.61930381 105.09945919 -0.96066029 117.5390625 9.66015625 C128.1297268 19.59681538 133.95439531 34.00337773 134.58998299 48.56098557 C134.62266344 51.00850467 134.62367854 53.45413596 134.61352539 55.90185547 C134.61367142 56.82932083 134.61381744 57.75678619 134.6139679 58.71235657 C134.61327377 61.76399105 134.60550483 64.81556374 134.59765625 67.8671875 C134.59579029 69.98853522 134.59436723 72.10988338 134.59336853 74.23123169 C134.58955735 79.80429278 134.57973902 85.37732766 134.56866455 90.95037842 C134.55842034 96.6413945 134.55386446 102.33241484 134.54882812 108.0234375 C134.53811548 119.18230502 134.52053002 130.34114622 134.5 141.5 C122.95 141.5 111.4 141.5 99.5 141.5 C99.47812622 137.6786145 99.47812622 137.6786145 99.45581055 133.7800293 C99.40530561 125.33020338 99.33868302 116.88055867 99.26428509 108.43091106 C99.21969931 103.31162297 99.18041757 98.1924123 99.15356445 93.07299805 C99.12741337 88.12560391 99.0869286 83.17850962 99.03681374 78.23130226 C99.02022448 76.35086633 99.00866105 74.47037863 99.00238609 72.58987999 C99.32541882 53.86111972 99.32541882 53.86111972 90.3671875 38.09375 C84.60763052 33.17764279 79.09157095 32.9487795 71.71875 33.16015625 C65.00277025 33.86924635 60.35295007 36.26560065 55.625 41.0625 C47.88149355 51.15334612 49.0290754 64.0893232 48.98828125 76.16796875 C48.97140923 78.05797981 48.95325565 79.94797983 48.93388367 81.83796692 C48.88665132 86.77796983 48.85666957 91.71792793 48.83044434 96.65808105 C48.80050283 101.71289923 48.75401963 106.76756338 48.70898438 111.82226562 C48.62325612 121.7147803 48.5573078 131.60727982 48.5 141.5 C36.95 141.5 25.4 141.5 13.5 141.5 C13.45101562 135.80363281 13.40203125 130.10726562 13.3515625 124.23828125 C13.31613183 120.60610319 13.28014659 116.97394725 13.2421875 113.34179688 C13.18213304 107.59044748 13.12401187 101.83912864 13.078125 96.08764648 C13.04095563 91.44503897 12.99451486 86.80260437 12.94193649 82.16014671 C12.92355913 80.3985825 12.90839141 78.63698147 12.89665604 76.87536049 C13.46988599 56.96470399 13.46988599 56.96470399 5.5 39.5 C0.42447717 34.55461878 -4.43566812 33.38826054 -11.375 33.1875 C-18.13176841 33.32146319 -22.94637238 34.35263132 -28.25 38.8125 C-34.73781029 46.56182896 -36.79167183 53.36334991 -36.81884766 63.28100586 C-36.83391609 64.5553801 -36.83391609 64.5553801 -36.84928894 65.85549927 C-36.87998803 68.64194104 -36.89711895 71.42828731 -36.9140625 74.21484375 C-36.93278484 76.15540887 -36.95235904 78.09596595 -36.9727478 80.03651428 C-37.02396237 85.12781009 -37.06364514 90.21913227 -37.10089111 95.31054688 C-37.1409978 100.51243555 -37.19205969 105.71421557 -37.2421875 110.91601562 C-37.33882042 121.11060815 -37.42225224 131.30524594 -37.5 141.5 C-49.38 141.5 -61.26 141.5 -73.5 141.5 C-73.5 96.29 -73.5 51.08 -73.5 4.5 C-63.93 4.5 -54.36 4.5 -44.5 4.5 C-44.17 12.42 -43.84 20.34 -43.5 28.5 C-42.613125 26.64375 -41.72625 24.7875 -40.8125 22.875 C-35.0864055 11.52934299 -27.55891503 5.54824658 -15.55908203 1.32470703 C-10.37420315 -0.0730999 -5.34000072 -0.07862578 0 0 Z " fill="#2DD4A7" transform="translate(979.5,69.5)"/>
<path d="M0 0 C11.88 0 23.76 0 36 0 C44.17027312 25.44550741 52.31370023 50.8994355 60.35842896 76.38494873 C61.12003722 78.79675912 61.88263238 81.20825809 62.64620972 83.6194458 C63.71492479 86.99539994 64.77988816 90.37251383 65.84375 93.75 C66.16485245 94.76226654 66.4859549 95.77453308 66.81678772 96.81747437 C67.25069069 98.19946518 67.25069069 98.19946518 67.69335938 99.609375 C67.94710327 100.41342773 68.20084717 101.21748047 68.46228027 102.04589844 C69 104 69 104 69 106 C70.32 106 71.64 106 73 106 C73.33877167 104.52691124 73.33877167 104.52691124 73.68438721 103.02406311 C76.41072373 91.25694005 79.38758676 79.5620541 82.421875 67.87109375 C82.93198643 65.90003091 83.44193207 63.92892516 83.95172119 61.95777893 C85.27836522 56.82998706 86.6072241 51.70277183 87.93658447 46.57568359 C89.29893519 41.31969017 90.65913604 36.06314046 92.01953125 30.80664062 C94.67761314 20.53722219 97.33824004 10.26846572 100 0 C111.55 0 123.1 0 135 0 C132.5680336 10.33585719 130.11490516 20.59305981 127.32055664 30.82495117 C126.80503487 32.72614967 126.80503487 32.72614967 126.27909851 34.66575623 C125.35207758 38.0837018 124.42139001 41.5006376 123.48963475 44.91729522 C122.70594701 47.79205982 121.92392383 50.66727632 121.14181131 53.5424698 C119.29469267 60.33238344 117.44433044 67.12140741 115.59204102 73.90991211 C113.69304377 80.86988329 111.80034269 87.8315456 109.91058069 94.79402941 C108.2753425 100.81770669 106.63578839 106.84019849 104.99294752 112.86180669 C104.01724446 116.4383643 103.04316778 120.01534337 102.07344246 123.59352684 C100.99147363 127.58514606 99.90051593 131.57425765 98.80883789 135.56323242 C98.49647186 136.72048828 98.18410583 137.87774414 97.86227417 139.07006836 C93.17092896 156.12770413 88.10712538 173.24007121 72.65625 183.56640625 C59.68339154 190.62145103 46.00198148 190.39567731 31.6875 190.1875 C29.8678497 190.17241599 28.04818721 190.15873421 26.22851562 190.14648438 C21.8184544 190.11637472 17.41012543 190.05760686 13 190 C13 180.1 13 170.2 13 160 C27.4375 159.625 27.4375 159.625 31.93530273 159.52197266 C45.22631867 159.41224133 45.22631867 159.41224133 57 154 C61.73239761 148.55057245 63.04470784 141.84352256 65 135 C54.605 134.505 54.605 134.505 44 134 C41.01071798 126.71687822 38.36127895 119.38063247 35.87402344 111.91259766 C35.48329651 110.74713409 35.09256958 109.58167053 34.69000244 108.38088989 C33.63009407 105.21679303 32.57286622 102.05182891 31.51726055 98.8862958 C30.8565809 96.90568626 30.19504569 94.9253646 29.53321075 92.94514084 C27.22191993 86.02969907 24.91368655 79.11324582 22.60839844 72.19580078 C20.4620963 65.75568837 18.30907935 59.31784749 16.15297294 52.88101161 C14.29724741 47.33996794 12.44614045 41.79739567 10.59863687 36.25360525 C9.49706811 32.94838934 8.39364921 29.6438199 7.28557587 26.34077835 C6.05314755 22.66641807 4.83032405 18.98890233 3.60839844 15.31103516 C3.24065308 14.21903809 2.87290771 13.12704102 2.49401855 12.00195312 C2.16323303 11.00120758 1.83244751 10.00046204 1.49163818 8.96939087 C1.2018597 8.10114496 0.91208122 7.23289906 0.61352158 6.33834267 C0 4 0 4 0 0 Z " fill="#2DD4A7" transform="translate(670,73)"/>
<path d="M0 0 C11.22 0 22.44 0 34 0 C34 12.54 34 25.08 34 38 C47.86 38 61.72 38 76 38 C76 46.58 76 55.16 76 64 C62.14 64 48.28 64 34 64 C34.09084502 75.93963386 34.09084502 75.93963386 34.20898438 87.87890625 C34.2632459 92.75078392 34.31435822 97.62254808 34.34643555 102.49462891 C34.37250758 106.42407931 34.41293704 110.35314709 34.46318626 114.28236008 C34.47982873 115.77895715 34.49135932 117.27562037 34.49761391 118.77229691 C34.50728401 120.87415616 34.53537527 122.97504237 34.56762695 125.07666016 C34.58428154 126.8686937 34.58428154 126.8686937 34.60127258 128.69692993 C35.21308772 133.76522516 37.09813185 137.00794504 40.5 140.75 C49.44366032 147.47390848 65.54184311 145.60032521 76 146 C76 155.9 76 165.8 76 176 C71.4319327 176.06972177 66.86578754 176.12918391 62.29760742 176.16479492 C60.75099355 176.1796739 59.20442022 176.19998363 57.65795898 176.22631836 C41.61329851 176.49225196 27.40640645 175.00431203 13.75 165.8125 C0.33768188 152.09535647 -0.16459107 133.50019725 -0.09765625 115.46484375 C-0.09578768 113.97555082 -0.09436585 112.48625727 -0.09336853 110.9969635 C-0.08957789 107.10574603 -0.0797777 103.21456678 -0.06866455 99.32336426 C-0.05837559 95.34123247 -0.05385498 91.35909442 -0.04882812 87.37695312 C-0.03815181 79.5846161 -0.0205836 71.79231831 0 64 C-6.93 64 -13.86 64 -21 64 C-21 55.42 -21 46.84 -21 38 C-14.07 38 -7.14 38 0 38 C0 25.46 0 12.92 0 0 Z " fill="#D7DEE7" transform="translate(316,36)"/>
<path d="M0 0 C0 10.23 0 20.46 0 31 C-3.2175 31.226875 -6.435 31.45375 -9.75 31.6875 C-20.42097424 32.63482705 -29.61422258 34.17167815 -37.5 42 C-45.77753538 52.79714661 -45.60296715 65.59198787 -45.609375 78.55078125 C-45.6243891 80.30341596 -45.64112291 82.05603669 -45.65948486 83.80863953 C-45.70280859 88.37711305 -45.72307898 92.94539586 -45.73822021 97.51403809 C-45.76139423 103.01936787 -45.81378251 108.52449099 -45.86116028 114.02965546 C-45.92957899 122.35315694 -45.96134696 130.67606781 -46 139 C-57.88 139 -69.76 139 -82 139 C-82 93.79 -82 48.58 -82 2 C-72.43 2 -62.86 2 -53 2 C-52.67 11.9 -52.34 21.8 -52 32 C-50.2675 28.2875 -50.2675 28.2875 -48.5 24.5 C-42.83832423 12.98453108 -36.07718882 6.78055391 -24 2 C-15.99805871 -0.60063092 -8.56150997 0 0 0 Z " fill="#2DD4A7" transform="translate(890,72)"/>
<path d="M0 0 C18.15 0 36.3 0 55 0 C55 45.21 55 90.42 55 137 C43.12 137 31.24 137 19 137 C19 100.7 19 64.4 19 27 C12.73 27 6.46 27 0 27 C0 18.09 0 9.18 0 0 Z " fill="#D7DEE7" transform="translate(225,73)"/>
<path d="M0 0 C4.5774297 3.78135497 6.68489118 7.13837226 7.3359375 13.05078125 C7.41690115 19.81124637 7.3733104 25.5534846 3 31 C-3.81993602 36.54119801 -10.47761637 36.61513268 -19 36 C-24.85306069 34.65823338 -28.88424613 31.06784311 -32.25 26.1875 C-34.53350071 19.52728959 -34.25767039 13.58995682 -32 7 C-29.45731724 2.09625468 -27.12338016 0.02800465 -22 -2 C-14.63502946 -4.17601402 -6.74840158 -3.77249175 0 0 Z " fill="#D7DEE7" transform="translate(270,22)"/>

</svg>
